<?xml version="1.0" encoding="utf-8"?>
<!-- Generator: Adobe Illustrator 21.1.0, SVG Export Plug-In . SVG Version: 6.00 Build 0)  -->
<svg version="1.1" id="Layer_1" xmlns="http://www.w3.org/2000/svg" xmlns:xlink="http://www.w3.org/1999/xlink" x="0px" y="0px"
	 viewBox="0 0 800 360" style="enable-background:new 0 0 800 360;" xml:space="preserve">
<style type="text/css">
	.st0{fill:#193F6E;}
	.st1{fill:#6297CB;}
</style>
<g>
	<path class="st0" d="M174.5,104.1h17v151.8h-17V129.7L120,195.8l-54-65.9v126H49V104.1h17l54,66.1L174.5,104.1z M206.2,201.5
		c0,8.2,1.6,16,4.7,23.2c3.1,7.2,7.4,13.6,12.8,19c5.4,5.4,11.7,9.7,19,12.8c7.2,3.1,15,4.7,23.2,4.7c8.2,0,16-1.6,23.2-4.7
		c7.2-3.1,13.5-7.3,18.9-12.7c0.9-0.9,1.7-1.7,2.4-2.4v14.5h15.2v-54.4c0-8.2-1.6-16-4.7-23.2c-3.1-7.2-7.4-13.6-12.8-19
		c-5.4-5.4-11.7-9.7-19-12.8c-7.2-3.1-15-4.7-23.2-4.7c-8.2,0-16,1.6-23.2,4.7c-7.2,3.1-13.6,7.4-19,12.8c-5.4,5.4-9.7,11.7-12.8,19
		C207.8,185.5,206.2,193.2,206.2,201.5 M221.4,201.5c0-6.1,1.2-11.8,3.5-17.2c2.3-5.4,5.5-10.2,9.5-14.2c4-4,8.8-7.2,14.2-9.5
		c5.4-2.3,11.2-3.5,17.2-3.5c6.1,0,11.8,1.2,17.2,3.5c5.4,2.3,10.2,5.5,14.2,9.5c4,4,7.2,8.8,9.5,14.2c2.3,5.4,3.5,11.2,3.5,17.2v2
		c-0.3,5.3-1.4,10.5-3.5,15.4c-2.3,5.3-5.5,10-9.5,14.1c-4,4-8.8,7.2-14.2,9.5c-5.4,2.3-11.2,3.5-17.2,3.5c-6.1,0-11.8-1.2-17.2-3.5
		c-5.4-2.3-10.2-5.5-14.2-9.5c-4-4-7.2-8.8-9.5-14.2C222.6,213.3,221.4,207.5,221.4,201.5 M341.7,255.9h15.2V146.2h-15.2V255.9z
		 M455.5,255.9h15.6l-0.2-65c0-6.6-1.3-13-3.9-19c-2.6-6-6.1-11.2-10.5-15.6c-4.4-4.4-9.6-7.9-15.5-10.5c-5.9-2.6-12.2-3.9-18.9-3.9
		c-3.3,0-6.7,0.4-10,1.1c-3.3,0.7-6.5,1.8-9.4,3.1c-3,1.4-5.7,3-8.1,5c-2.5,2-4.4,4.1-5.9,6.4v-10h-15.2v108.4H389l-0.2-65
		c0-4.2,0.9-8.3,2.7-12.4c1.8-4,4.2-7.6,7.3-10.7c3-3.1,6.6-5.6,10.6-7.5c4-1.9,8.3-2.8,12.8-2.8c4.5,0,8.7,0.9,12.8,2.6
		c4,1.7,7.6,4.1,10.6,7.2c3,3,5.4,6.6,7.2,10.6c1.7,4,2.6,8.4,2.6,13L455.5,255.9z M616,135.6h15.2v-15.2H616V135.6z"/>
	<path class="st1" d="M341.7,120.4h15.2v15.2h-15.2V120.4z M616,255.9h15.2V146.2H616V255.9z M646.9,104.1H662v43.4h14.6v15.2H662
		v93.2h-15.2V104.1z M599.2,178.3c-3.1-7.2-7.4-13.6-12.8-19c-5.4-5.4-11.7-9.7-19-12.8c-7.2-3.1-15-4.7-23.2-4.7
		s-16.7,2.2-25.4,6.6c-8.7,4.4-15,9.9-19.1,16.4v-60.7h-15.2v97.4v54.4h15.2v-14.7c0.7,0.8,1.5,1.6,2.3,2.4
		c5.4,5.4,11.7,9.7,19,12.8c7.2,3.1,15,4.7,23.2,4.7s16-1.6,23.2-4.7c7.2-3.1,13.6-7.4,19-12.8s9.7-11.7,12.8-19
		c3.1-7.2,4.7-15,4.7-23.2C603.8,193.2,602.3,185.5,599.2,178.3 M585.2,218.7c-2.3,5.4-5.5,10.2-9.5,14.2c-4,4-8.8,7.2-14.2,9.5
		c-5.4,2.3-11.2,3.5-17.2,3.5c-6.1,0-11.8-1.2-17.2-3.5c-5.4-2.3-10.2-5.5-14.2-9.5c-4-4-7.2-8.8-9.5-14.2
		c-2.3-5.4-3.5-11.2-3.5-17.2c0-6.1,1.2-11.8,3.5-17.2c2.3-5.4,5.5-10.2,9.5-14.2c4-4,8.8-7.2,14.2-9.5c5.4-2.3,11.2-3.5,17.2-3.5
		c6.1,0,11.8,1.2,17.2,3.5c5.4,2.3,10.2,5.5,14.2,9.5c4,4,7.2,8.8,9.5,14.2c2.3,5.4,3.5,11.2,3.5,17.2
		C588.7,207.5,587.5,213.3,585.2,218.7 M602.3,31.3C684.3,31.3,751,98,751,180c0,82-66.7,148.7-148.7,148.7
		c-46.3,0-89.3-21.3-117.5-57.6h17.6c25.5,27.9,62,44.2,99.9,44.2c74.6,0,135.3-60.7,135.3-135.3S676.9,44.7,602.3,44.7
		c-37.9,0-74.4,16.3-99.9,44.2h-17.6C513,52.7,556.1,31.3,602.3,31.3"/>
</g>
</svg>
